<svg width="298" height="157" viewBox="0 0 298 157" fill="none" xmlns="http://www.w3.org/2000/svg">
<mask id="path-1-outside-1_5599_29064" maskUnits="userSpaceOnUse" x="-0.296875" y="-0.28125" width="298" height="157" fill="black">
<rect fill="white" x="-0.296875" y="-0.28125" width="298" height="157"/>
<path d="M31.6711 42.6627L3.27913 42.7188V37.3427L16.6631 26.0307C22.2071 21.3267 24.0551 18.6387 24.0551 14.7188C24.0551 10.0707 21.5351 7.43875 17.2231 7.43875C12.7431 7.43875 9.94313 10.5747 9.88713 15.8387H2.77513C2.83113 6.87875 8.54313 1.05475 17.2231 1.05475C25.9591 1.05475 31.3911 6.03875 31.3911 14.3267C31.3911 20.0387 28.2551 24.3507 22.0391 29.6707L14.6471 35.9987H31.6711V42.6627ZM36.0877 22.3347C36.0877 9.62275 42.9197 0.998746 53.3917 0.998746C63.8637 0.998746 70.7517 9.62275 70.7517 22.3347C70.7517 34.9907 64.2557 43.4468 53.3917 43.4468C42.5277 43.4468 36.0877 34.9907 36.0877 22.3347ZM43.1437 22.3347C43.1437 31.7987 46.9517 37.1187 53.3917 37.1187C59.8877 37.1187 63.6957 31.7987 63.6957 22.3347C63.6957 12.6467 59.8877 7.32675 53.3917 7.32675C46.9517 7.32675 43.1437 12.6467 43.1437 22.3347ZM75.5721 22.3347C75.5721 9.62275 82.4041 0.998746 92.8761 0.998746C103.348 0.998746 110.236 9.62275 110.236 22.3347C110.236 34.9907 103.74 43.4468 92.8761 43.4468C82.0121 43.4468 75.5721 34.9907 75.5721 22.3347ZM82.6281 22.3347C82.6281 31.7987 86.4361 37.1187 92.8761 37.1187C99.3721 37.1187 103.18 31.7987 103.18 22.3347C103.18 12.6467 99.3721 7.32675 92.8761 7.32675C86.4361 7.32675 82.6281 12.6467 82.6281 22.3347ZM123.064 42.7188H116.288V1.05475H123.064V26.6467L133.816 15.0547H142.384L131.856 26.0307L142.16 42.7188H134.32L127.096 31.0707L123.064 35.2707V42.7188ZM147.261 20.9907H158.405V9.84675H164.117V20.9907H175.261V26.7027H164.117V37.9027H158.405V26.7027H147.261V20.9907ZM22.9911 71.0547H29.8231V98.7188H23.4951L22.9911 95.0228C21.3111 97.6547 17.7271 99.4468 14.0311 99.4468C7.64713 99.4468 3.89513 95.1347 3.89513 88.3587V71.0547H10.7271V85.9507C10.7271 91.2147 12.7991 93.3427 16.6071 93.3427C20.9191 93.3427 22.9911 90.8227 22.9911 85.5587V71.0547ZM34.2047 90.3187H40.7007C40.7567 92.7267 42.5487 94.2387 45.6847 94.2387C48.8767 94.2387 50.6127 92.9507 50.6127 90.9347C50.6127 89.5347 49.8847 88.5267 47.4207 87.9667L42.4367 86.7907C37.4527 85.6707 35.0447 83.3187 35.0447 78.8947C35.0447 73.4627 39.6367 70.2147 46.0207 70.2147C52.2367 70.2147 56.4367 73.7987 56.4927 79.1747H49.9967C49.9407 76.8227 48.3727 75.3107 45.7407 75.3107C43.0527 75.3107 41.4847 76.5427 41.4847 78.6147C41.4847 80.1827 42.7167 81.1907 45.0687 81.7507L50.0527 82.9267C54.7007 83.9907 57.0527 86.1187 57.0527 90.3747C57.0527 95.9747 52.2927 99.4468 45.4607 99.4468C38.5727 99.4468 34.2047 95.7507 34.2047 90.3187ZM74.6306 99.4468C66.3986 99.4468 60.6306 93.4547 60.6306 84.8867C60.6306 76.2067 66.2866 70.2147 74.4066 70.2147C82.6946 70.2147 87.9586 75.7587 87.9586 84.3827V86.4547L67.1266 86.5107C67.6306 91.3827 70.2066 93.8467 74.7426 93.8467C78.4946 93.8467 80.9586 92.3907 81.7426 89.7587H88.0706C86.8946 95.8067 81.8546 99.4468 74.6306 99.4468ZM74.4626 75.8147C70.4306 75.8147 67.9666 77.9987 67.2946 82.1427H81.1826C81.1826 78.3347 78.5506 75.8147 74.4626 75.8147ZM110.786 70.9427V77.2707H108.266C103.338 77.2707 100.258 79.9027 100.258 85.2787V98.7188H93.4264V71.1107H99.8664L100.258 75.1427C101.434 72.3987 104.066 70.5507 107.762 70.5507C108.714 70.5507 109.666 70.6627 110.786 70.9427ZM113.283 90.3187H119.779C119.835 92.7267 121.627 94.2387 124.763 94.2387C127.955 94.2387 129.691 92.9507 129.691 90.9347C129.691 89.5347 128.963 88.5267 126.499 87.9667L121.515 86.7907C116.531 85.6707 114.123 83.3187 114.123 78.8947C114.123 73.4627 118.715 70.2147 125.099 70.2147C131.315 70.2147 135.515 73.7987 135.571 79.1747H129.075C129.019 76.8227 127.451 75.3107 124.819 75.3107C122.131 75.3107 120.563 76.5427 120.563 78.6147C120.563 80.1827 121.795 81.1907 124.147 81.7507L129.131 82.9267C133.779 83.9907 136.131 86.1187 136.131 90.3747C136.131 95.9747 131.371 99.4468 124.539 99.4468C117.651 99.4468 113.283 95.7507 113.283 90.3187ZM162.53 98.7188L153.57 71.0547H160.682L164.322 82.9267C164.938 85.1107 165.498 87.5187 166.002 90.0947C166.506 87.4067 167.01 85.6707 167.906 82.9267L171.714 71.0547H178.658L182.354 82.9267C182.69 84.0467 183.81 88.1907 184.146 90.0387C184.594 87.9667 185.49 84.6627 185.994 82.9267L189.69 71.0547H196.914L187.338 98.7188H180.954L177.146 86.7347C176.026 83.0947 175.41 80.4627 175.186 79.0627C174.906 80.3507 174.402 82.3107 173.002 86.8467L169.194 98.7188H162.53ZM198.06 84.8307C198.06 76.2067 204.276 70.2707 212.844 70.2707C221.412 70.2707 227.628 76.2067 227.628 84.8307C227.628 93.4547 221.412 99.3908 212.844 99.3908C204.276 99.3908 198.06 93.4547 198.06 84.8307ZM204.892 84.8307C204.892 89.8707 208.14 93.2867 212.844 93.2867C217.548 93.2867 220.796 89.8707 220.796 84.8307C220.796 79.7907 217.548 76.3747 212.844 76.3747C208.14 76.3747 204.892 79.7907 204.892 84.8307ZM250.404 70.9427V77.2707H247.884C242.956 77.2707 239.876 79.9027 239.876 85.2787V98.7188H233.044V71.1107H239.484L239.876 75.1427C241.052 72.3987 243.684 70.5507 247.38 70.5507C248.332 70.5507 249.284 70.6627 250.404 70.9427ZM261.916 98.7188H255.14V57.0547H261.916V98.7188ZM280.451 99.4468C272.443 99.4468 267.459 93.5667 267.459 84.9987C267.459 76.3747 272.499 70.2147 280.843 70.2147C284.707 70.2147 288.123 71.8387 289.859 74.5827V57.0547H296.635V98.7188H290.363L289.915 94.4067C288.235 97.5987 284.651 99.4468 280.451 99.4468ZM281.963 93.1747C286.723 93.1747 289.803 89.7587 289.803 84.7747C289.803 79.7907 286.723 76.3187 281.963 76.3187C277.203 76.3187 274.291 79.8467 274.291 84.7747C274.291 89.7027 277.203 93.1747 281.963 93.1747ZM10.3351 154.719L1.37513 127.055H8.48713L12.1271 138.927C12.7431 141.111 13.3031 143.519 13.8071 146.095C14.3111 143.407 14.8151 141.671 15.7111 138.927L19.5191 127.055H26.4631L30.1591 138.927C30.4951 140.047 31.6151 144.191 31.9511 146.039C32.3991 143.967 33.2951 140.663 33.7991 138.927L37.4951 127.055H44.7191L35.1431 154.719H28.7591L24.9511 142.735C23.8311 139.095 23.2151 136.463 22.9911 135.063C22.7111 136.351 22.2071 138.311 20.8071 142.847L16.9991 154.719H10.3351ZM52.2721 121.511C49.9201 121.511 48.0721 119.663 48.0721 117.367C48.0721 115.071 49.9201 113.279 52.2721 113.279C54.5121 113.279 56.3601 115.071 56.3601 117.367C56.3601 119.663 54.5121 121.511 52.2721 121.511ZM48.8561 154.719V127.055H55.6881V154.719H48.8561ZM74.1148 155.447C66.1068 155.447 61.1228 149.567 61.1228 140.999C61.1228 132.375 66.1628 126.215 74.5068 126.215C78.3708 126.215 81.7868 127.839 83.5228 130.583V113.055H90.2988V154.719H84.0268L83.5788 150.407C81.8988 153.599 78.3148 155.447 74.1148 155.447ZM75.6268 149.175C80.3868 149.175 83.4668 145.759 83.4668 140.775C83.4668 135.791 80.3868 132.319 75.6268 132.319C70.8668 132.319 67.9548 135.847 67.9548 140.775C67.9548 145.703 70.8668 149.175 75.6268 149.175ZM109.795 155.447C101.563 155.447 95.7946 149.455 95.7946 140.887C95.7946 132.207 101.451 126.215 109.571 126.215C117.859 126.215 123.123 131.759 123.123 140.383V142.455L102.291 142.511C102.795 147.383 105.371 149.847 109.907 149.847C113.659 149.847 116.123 148.391 116.907 145.759H123.235C122.059 151.807 117.019 155.447 109.795 155.447ZM109.627 131.815C105.595 131.815 103.131 133.999 102.459 138.143H116.347C116.347 134.335 113.715 131.815 109.627 131.815Z"/>
</mask>
<path d="M31.6711 42.6628L31.6731 43.6627L32.6711 43.6608V42.6628H31.6711ZM3.27913 42.7188H2.27913V43.7207L3.2811 43.7187L3.27913 42.7188ZM3.27913 37.3428L2.63361 36.579L2.27913 36.8786V37.3428H3.27913ZM16.6631 26.0308L17.3086 26.7945L17.3101 26.7933L16.6631 26.0308ZM9.88713 15.8387V16.8387H10.8765L10.8871 15.8494L9.88713 15.8387ZM2.77513 15.8387L1.77514 15.8325L1.76886 16.8387H2.77513V15.8387ZM22.0391 29.6707L21.3889 28.911L21.3888 28.9111L22.0391 29.6707ZM14.6471 35.9987L13.9968 35.2391L11.9413 36.9987H14.6471V35.9987ZM31.6711 35.9987H32.6711V34.9987H31.6711V35.9987ZM31.6711 42.6628L31.6692 41.6628L3.27715 41.7188L3.27913 42.7188L3.2811 43.7187L31.6731 43.6627L31.6711 42.6628ZM3.27913 42.7188H4.27913V37.3428H3.27913H2.27913V42.7188H3.27913ZM3.27913 37.3428L3.92464 38.1065L17.3086 26.7945L16.6631 26.0308L16.0176 25.267L2.63361 36.579L3.27913 37.3428ZM16.6631 26.0308L17.3101 26.7933C20.0957 24.4297 22.0355 22.5061 23.2727 20.6316C24.5383 18.7141 25.0551 16.8697 25.0551 14.7188H24.0551H23.0551C23.0551 16.4878 22.6479 17.9474 21.6035 19.5299C20.5307 21.1554 18.7745 22.9278 16.0161 25.2682L16.6631 26.0308ZM24.0551 14.7188H25.0551C25.0551 12.2205 24.3762 10.1256 22.9835 8.64949C21.5831 7.16527 19.5858 6.43875 17.2231 6.43875V7.43875V8.43875C19.1725 8.43875 20.5911 9.02822 21.5288 10.022C22.4741 11.0239 23.0551 12.569 23.0551 14.7188H24.0551ZM17.2231 7.43875V6.43875C14.7352 6.43875 12.6265 7.31849 11.1449 9.0047C9.678 10.6742 8.91696 13.0292 8.88718 15.8281L9.88713 15.8387L10.8871 15.8494C10.9133 13.3843 11.5803 11.5393 12.6473 10.3248C13.6998 9.127 15.2311 8.43875 17.2231 8.43875V7.43875ZM9.88713 15.8387V14.8387H2.77513V15.8387V16.8387H9.88713V15.8387ZM2.77513 15.8387L3.77511 15.845C3.80177 11.5784 5.17096 8.14636 7.47996 5.78604C9.78639 3.42836 13.1135 2.05475 17.2231 2.05475V1.05475V0.054749C12.6528 0.054749 8.78386 1.59314 6.05029 4.38745C3.31929 7.17914 1.80448 11.1391 1.77514 15.8325L2.77513 15.8387ZM17.2231 1.05475V2.05475C21.405 2.05475 24.6803 3.2456 26.9016 5.3145C29.1139 7.37512 30.3911 10.4092 30.3911 14.3267H31.3911H32.3911C32.3911 9.9563 30.9524 6.35437 28.2647 3.851C25.5859 1.3559 21.7772 0.054749 17.2231 0.054749V1.05475ZM31.3911 14.3267H30.3911C30.3911 19.5785 27.5544 23.6342 21.3889 28.911L22.0391 29.6707L22.6894 30.4305C28.9559 25.0673 32.3911 20.499 32.3911 14.3267H31.3911ZM22.0391 29.6707L21.3888 28.9111L13.9968 35.2391L14.6471 35.9987L15.2974 36.7584L22.6894 30.4304L22.0391 29.6707ZM14.6471 35.9987V36.9987H31.6711V35.9987V34.9987H14.6471V35.9987ZM31.6711 35.9987H30.6711V42.6628H31.6711H32.6711V35.9987H31.6711ZM36.0877 22.3347H37.0877C37.0877 16.1493 38.75 11.0541 41.5914 7.5271C44.4171 4.01954 48.456 1.99875 53.3917 1.99875V0.998746V-0.0012536C47.8554 -0.0012536 43.2422 2.28996 40.034 6.27239C36.8413 10.2354 35.0877 15.8082 35.0877 22.3347H36.0877ZM53.3917 0.998746V1.99875C58.328 1.99875 62.3815 4.02005 65.2214 7.52886C68.0763 11.0563 69.7517 16.1512 69.7517 22.3347H70.7517H71.7517C71.7517 15.8063 69.9831 10.2332 66.776 6.27063C63.5538 2.28944 58.9274 -0.0012536 53.3917 -0.0012536V0.998746ZM70.7517 22.3347H69.7517C69.7517 28.5027 68.1682 33.5375 65.3674 37.0088C62.5862 40.456 58.5391 42.4468 53.3917 42.4468V43.4468V44.4468C59.1082 44.4468 63.7412 42.2095 66.924 38.2647C70.0872 34.344 71.7517 28.8228 71.7517 22.3347H70.7517ZM53.3917 43.4468V42.4468C48.2447 42.4468 44.2125 40.4565 41.4454 37.0106C38.6582 33.5397 37.0877 28.5046 37.0877 22.3347H36.0877H35.0877C35.0877 28.8209 36.7372 34.3418 39.886 38.2629C43.0548 42.209 47.6747 44.4468 53.3917 44.4468V43.4468ZM43.1437 22.3347H42.1437C42.1437 27.1799 43.1152 31.1056 45.0331 33.8488C46.9832 36.6379 49.8558 38.1188 53.3917 38.1188V37.1188V36.1188C50.4876 36.1188 48.2361 34.9396 46.6722 32.7027C45.0761 30.4199 44.1437 26.9536 44.1437 22.3347H43.1437ZM53.3917 37.1188V38.1188C56.9525 38.1188 59.8396 36.6405 61.7982 33.8503C63.7242 31.1064 64.6957 27.1798 64.6957 22.3347H63.6957H62.6957C62.6957 26.9537 61.7632 30.4191 60.1612 32.7012C58.5918 34.937 56.3269 36.1188 53.3917 36.1188V37.1188ZM63.6957 22.3347H64.6957C64.6957 17.3818 63.7258 13.3999 61.8011 10.6275C59.8426 7.80625 56.9537 6.32675 53.3917 6.32675V7.32675V8.32675C56.3257 8.32675 58.5888 9.50724 60.1582 11.768C61.7616 14.0776 62.6957 17.5997 62.6957 22.3347H63.6957ZM53.3917 7.32675V6.32675C49.8546 6.32675 46.9802 7.80882 45.0302 10.629C43.1137 13.4007 42.1437 17.3817 42.1437 22.3347H43.1437H44.1437C44.1437 17.5998 45.0777 14.0768 46.6752 11.7665C48.2392 9.50468 50.4888 8.32675 53.3917 8.32675V7.32675ZM75.5721 22.3347H76.5721C76.5721 16.1493 78.2344 11.0541 81.0758 7.5271C83.9015 4.01954 87.9403 1.99875 92.8761 1.99875V0.998746V-0.0012536C87.3398 -0.0012536 82.7266 2.28996 79.5183 6.27239C76.3257 10.2354 74.5721 15.8082 74.5721 22.3347H75.5721ZM92.8761 0.998746V1.99875C97.8123 1.99875 101.866 4.02005 104.706 7.52886C107.561 11.0563 109.236 16.1512 109.236 22.3347H110.236H111.236C111.236 15.8063 109.467 10.2332 106.26 6.27063C103.038 2.28944 98.4118 -0.0012536 92.8761 -0.0012536V0.998746ZM110.236 22.3347H109.236C109.236 28.5027 107.653 33.5375 104.852 37.0088C102.071 40.456 98.0235 42.4468 92.8761 42.4468V43.4468V44.4468C98.5926 44.4468 103.226 42.2095 106.408 38.2647C109.572 34.344 111.236 28.8228 111.236 22.3347H110.236ZM92.8761 43.4468V42.4468C87.7291 42.4468 83.6969 40.4565 80.9298 37.0106C78.1425 33.5397 76.5721 28.5046 76.5721 22.3347H75.5721H74.5721C74.5721 28.8209 76.2216 34.3418 79.3703 38.2629C82.5392 42.209 87.159 44.4468 92.8761 44.4468V43.4468ZM82.6281 22.3347H81.6281C81.6281 27.1799 82.5996 31.1056 84.5175 33.8488C86.4676 36.6379 89.3402 38.1188 92.8761 38.1188V37.1188V36.1188C89.972 36.1188 87.7205 34.9396 86.1566 32.7027C84.5605 30.4199 83.6281 26.9536 83.6281 22.3347H82.6281ZM92.8761 37.1188V38.1188C96.4369 38.1188 99.324 36.6405 101.283 33.8503C103.209 31.1064 104.18 27.1798 104.18 22.3347H103.18H102.18C102.18 26.9537 101.248 30.4191 99.6456 32.7012C98.0762 34.937 95.8112 36.1188 92.8761 36.1188V37.1188ZM103.18 22.3347H104.18C104.18 17.3818 103.21 13.3999 101.286 10.6275C99.327 7.80625 96.4381 6.32675 92.8761 6.32675V7.32675V8.32675C95.8101 8.32675 98.0731 9.50724 99.6426 11.768C101.246 14.0776 102.18 17.5997 102.18 22.3347H103.18ZM92.8761 7.32675V6.32675C89.339 6.32675 86.4646 7.80882 84.5145 10.629C82.598 13.4007 81.6281 17.3817 81.6281 22.3347H82.6281H83.6281C83.6281 17.5998 84.5621 14.0768 86.1596 11.7665C87.7235 9.50468 89.9732 8.32675 92.8761 8.32675V7.32675ZM123.064 42.7188V43.7188H124.064V42.7188H123.064ZM116.288 42.7188H115.288V43.7188H116.288V42.7188ZM116.288 1.05475V0.054749H115.288V1.05475H116.288ZM123.064 1.05475H124.064V0.054749H123.064V1.05475ZM123.064 26.6467H122.064V29.1954L123.798 27.3268L123.064 26.6467ZM133.816 15.0547V14.0547H133.38L133.083 14.3747L133.816 15.0547ZM142.384 15.0547L143.106 15.747L144.729 14.0547H142.384V15.0547ZM131.856 26.0308L131.135 25.3385L130.599 25.8973L131.006 26.5561L131.856 26.0308ZM142.16 42.7188V43.7188H143.953L143.011 42.1934L142.16 42.7188ZM134.32 42.7188L133.471 43.2458L133.764 43.7188H134.32V42.7188ZM127.096 31.0707L127.946 30.5437L127.267 29.4488L126.375 30.3782L127.096 31.0707ZM123.064 35.2707L122.343 34.5782L122.064 34.8684V35.2707H123.064ZM123.064 42.7188V41.7188H116.288V42.7188V43.7188H123.064V42.7188ZM116.288 42.7188H117.288V1.05475H116.288H115.288V42.7188H116.288ZM116.288 1.05475V2.05475H123.064V1.05475V0.054749H116.288V1.05475ZM123.064 1.05475H122.064V26.6467H123.064H124.064V1.05475H123.064ZM123.064 26.6467L123.798 27.3268L134.55 15.7348L133.816 15.0547L133.083 14.3747L122.331 25.9667L123.064 26.6467ZM133.816 15.0547V16.0547H142.384V15.0547V14.0547H133.816V15.0547ZM142.384 15.0547L141.663 14.3625L131.135 25.3385L131.856 26.0308L132.578 26.723L143.106 15.747L142.384 15.0547ZM131.856 26.0308L131.006 26.5561L141.31 43.2441L142.16 42.7188L143.011 42.1934L132.707 25.5054L131.856 26.0308ZM142.16 42.7188V41.7188H134.32V42.7188V43.7188H142.16V42.7188ZM134.32 42.7188L135.17 42.1917L127.946 30.5437L127.096 31.0707L126.247 31.5978L133.471 43.2458L134.32 42.7188ZM127.096 31.0707L126.375 30.3782L122.343 34.5782L123.064 35.2707L123.786 35.9633L127.818 31.7633L127.096 31.0707ZM123.064 35.2707H122.064V42.7188H123.064H124.064V35.2707H123.064ZM147.261 20.9907V19.9907H146.261V20.9907H147.261ZM158.405 20.9907V21.9907H159.405V20.9907H158.405ZM158.405 9.84675V8.84675H157.405V9.84675H158.405ZM164.117 9.84675H165.117V8.84675H164.117V9.84675ZM164.117 20.9907H163.117V21.9907H164.117V20.9907ZM175.261 20.9907H176.261V19.9907H175.261V20.9907ZM175.261 26.7027V27.7027H176.261V26.7027H175.261ZM164.117 26.7027V25.7027H163.117V26.7027H164.117ZM164.117 37.9027V38.9027H165.117V37.9027H164.117ZM158.405 37.9027H157.405V38.9027H158.405V37.9027ZM158.405 26.7027H159.405V25.7027H158.405V26.7027ZM147.261 26.7027H146.261V27.7027H147.261V26.7027ZM147.261 20.9907V21.9907H158.405V20.9907V19.9907H147.261V20.9907ZM158.405 20.9907H159.405V9.84675H158.405H157.405V20.9907H158.405ZM158.405 9.84675V10.8467H164.117V9.84675V8.84675H158.405V9.84675ZM164.117 9.84675H163.117V20.9907H164.117H165.117V9.84675H164.117ZM164.117 20.9907V21.9907H175.261V20.9907V19.9907H164.117V20.9907ZM175.261 20.9907H174.261V26.7027H175.261H176.261V20.9907H175.261ZM175.261 26.7027V25.7027H164.117V26.7027V27.7027H175.261V26.7027ZM164.117 26.7027H163.117V37.9027H164.117H165.117V26.7027H164.117ZM164.117 37.9027V36.9027H158.405V37.9027V38.9027H164.117V37.9027ZM158.405 37.9027H159.405V26.7027H158.405H157.405V37.9027H158.405ZM158.405 26.7027V25.7027H147.261V26.7027V27.7027H158.405V26.7027ZM147.261 26.7027H148.261V20.9907H147.261H146.261V26.7027H147.261ZM22.9911 71.0547V70.0547H21.9911V71.0547H22.9911ZM29.8231 71.0547H30.8231V70.0547H29.8231V71.0547ZM29.8231 98.7188V99.7188H30.8231V98.7188H29.8231ZM23.4951 98.7188L22.5043 98.8539L22.6222 99.7188H23.4951V98.7188ZM22.9911 95.0228L23.982 94.8876L23.6139 92.1885L22.1482 94.4847L22.9911 95.0228ZM3.89513 71.0547V70.0547H2.89513V71.0547H3.89513ZM10.7271 71.0547H11.7271V70.0547H10.7271V71.0547ZM22.9911 71.0547V72.0547H29.8231V71.0547V70.0547H22.9911V71.0547ZM29.8231 71.0547H28.8231V98.7188H29.8231H30.8231V71.0547H29.8231ZM29.8231 98.7188V97.7188H23.4951V98.7188V99.7188H29.8231V98.7188ZM23.4951 98.7188L24.486 98.5836L23.982 94.8876L22.9911 95.0228L22.0003 95.1579L22.5043 98.8539L23.4951 98.7188ZM22.9911 95.0228L22.1482 94.4847C20.6844 96.778 17.4508 98.4467 14.0311 98.4467V99.4467V100.447C18.0034 100.447 21.9379 98.5315 23.834 95.5608L22.9911 95.0228ZM14.0311 99.4467V98.4467C11.0756 98.4467 8.829 97.4565 7.31175 95.774C5.78256 94.0784 4.89513 91.5686 4.89513 88.3587H3.89513H2.89513C2.89513 91.9249 3.88369 94.9591 5.8265 97.1135C7.78125 99.281 10.6026 100.447 14.0311 100.447V99.4467ZM3.89513 88.3587H4.89513V71.0547H3.89513H2.89513V88.3587H3.89513ZM3.89513 71.0547V72.0547H10.7271V71.0547V70.0547H3.89513V71.0547ZM10.7271 71.0547H9.72713V85.9508H10.7271H11.7271V71.0547H10.7271ZM10.7271 85.9508H9.72713C9.72713 88.6839 10.2598 90.811 11.4716 92.2618C12.7159 93.7514 14.5157 94.3428 16.6071 94.3428V93.3428V92.3428C14.8905 92.3428 13.7504 91.8701 13.0066 90.9797C12.2304 90.0505 11.7271 88.4816 11.7271 85.9508H10.7271ZM16.6071 93.3428V94.3428C18.9632 94.3428 20.8871 93.6458 22.1891 92.0591C23.4579 90.5131 23.9911 88.2931 23.9911 85.5587H22.9911H21.9911C21.9911 88.0884 21.4883 89.7604 20.6431 90.7904C19.8312 91.7797 18.563 92.3428 16.6071 92.3428V93.3428ZM22.9911 85.5587H23.9911V71.0547H22.9911H21.9911V85.5587H22.9911ZM34.2047 90.3187V89.3187H33.2047V90.3187H34.2047ZM40.7007 90.3187L41.7004 90.2955L41.6777 89.3187H40.7007V90.3187ZM47.4207 87.9668L47.191 88.9401L47.1991 88.9419L47.4207 87.9668ZM42.4367 86.7907L42.6664 85.8174L42.6559 85.8151L42.4367 86.7907ZM56.4927 79.1748V80.1748H57.5032L57.4926 79.1643L56.4927 79.1748ZM49.9967 79.1748L48.997 79.1986L49.0202 80.1748H49.9967V79.1748ZM45.0687 81.7507L44.8371 82.7236L44.839 82.724L45.0687 81.7507ZM50.0527 82.9268L49.823 83.9L49.8295 83.9015L50.0527 82.9268ZM34.2047 90.3187V91.3187H40.7007V90.3187V89.3187H34.2047V90.3187ZM40.7007 90.3187L39.701 90.342C39.7351 91.8091 40.3109 93.0791 41.4122 93.962C42.4896 94.8256 43.9679 95.2387 45.6847 95.2387V94.2387V93.2387C44.2655 93.2387 43.2798 92.8959 42.6632 92.4015C42.0705 91.9264 41.7223 91.2364 41.7004 90.2955L40.7007 90.3187ZM45.6847 94.2387V95.2387C47.3953 95.2387 48.8531 94.8966 49.9131 94.1662C51.0163 93.406 51.6127 92.2724 51.6127 90.9347H50.6127H49.6127C49.6127 91.6131 49.341 92.1315 48.7783 92.5193C48.1723 92.9369 47.166 93.2387 45.6847 93.2387V94.2387ZM50.6127 90.9347H51.6127C51.6127 90.0443 51.3725 89.1636 50.6528 88.4337C49.97 87.7411 48.9574 87.2905 47.6423 86.9916L47.4207 87.9668L47.1991 88.9419C48.348 89.203 48.9314 89.5364 49.2286 89.8378C49.4889 90.1019 49.6127 90.4252 49.6127 90.9347H50.6127ZM47.4207 87.9668L47.6503 86.9935L42.6663 85.8175L42.4367 86.7907L42.207 87.764L47.191 88.94L47.4207 87.9668ZM42.4367 86.7907L42.6559 85.8151C40.2587 85.2764 38.6276 84.471 37.5944 83.3906C36.587 82.3372 36.0447 80.913 36.0447 78.8948H35.0447H34.0447C34.0447 81.3005 34.7063 83.2643 36.149 84.7729C37.5658 86.2544 39.6307 87.1851 42.2174 87.7664L42.4367 86.7907ZM35.0447 78.8948H36.0447C36.0447 76.4931 37.0453 74.6153 38.7469 73.3115C40.4746 71.9878 42.9862 71.2148 46.0207 71.2148V70.2148V69.2148C42.6712 69.2148 39.6948 70.0657 37.5305 71.724C35.3401 73.4022 34.0447 75.8644 34.0447 78.8948H35.0447ZM46.0207 70.2148V71.2148C48.941 71.2148 51.299 72.0556 52.9169 73.4388C54.522 74.8112 55.4676 76.7733 55.4927 79.1852L56.4927 79.1748L57.4926 79.1643C57.4618 76.2002 56.2793 73.6823 54.2165 71.9187C52.1664 70.1659 49.3164 69.2148 46.0207 69.2148V70.2148ZM56.4927 79.1748V78.1748H49.9967V79.1748V80.1748H56.4927V79.1748ZM49.9967 79.1748L50.9964 79.1509C50.9631 77.7513 50.4721 76.5113 49.513 75.6259C48.5595 74.7458 47.2465 74.3108 45.7407 74.3108V75.3108V76.3108C46.8668 76.3108 47.6539 76.6317 48.1564 77.0956C48.6533 77.5542 48.9743 78.2462 48.997 79.1986L49.9967 79.1748ZM45.7407 75.3108V74.3108C44.2599 74.3108 42.9513 74.6483 41.9902 75.3968C40.9964 76.1709 40.4847 77.3002 40.4847 78.6147H41.4847H42.4847C42.4847 77.8573 42.757 77.3346 43.2192 76.9747C43.7141 76.5892 44.5335 76.3108 45.7407 76.3108V75.3108ZM41.4847 78.6147H40.4847C40.4847 79.7037 40.9303 80.6199 41.7424 81.3188C42.5162 81.9846 43.5874 82.426 44.8371 82.7236L45.0687 81.7507L45.3003 80.7779C44.198 80.5155 43.4772 80.1729 43.0469 79.8027C42.6551 79.4656 42.4847 79.0938 42.4847 78.6147H41.4847ZM45.0687 81.7507L44.839 82.724L49.823 83.9L50.0527 82.9268L50.2823 81.9535L45.2983 80.7775L45.0687 81.7507ZM50.0527 82.9268L49.8295 83.9015C52.0679 84.4139 53.6033 85.152 54.5803 86.1524C55.5273 87.1222 56.0527 88.4453 56.0527 90.3747H57.0527H58.0527C58.0527 88.0482 57.4021 86.1793 56.0111 84.7551C54.6501 83.3615 52.6855 82.5036 50.2758 81.952L50.0527 82.9268ZM57.0527 90.3747H56.0527C56.0527 92.8595 55.0108 94.8359 53.21 96.2173C51.3843 97.6178 48.7189 98.4467 45.4607 98.4467V99.4467V100.447C49.0345 100.447 52.165 99.5396 54.4273 97.8042C56.7146 96.0496 58.0527 93.49 58.0527 90.3747H57.0527ZM45.4607 99.4467V98.4467C42.1878 98.4467 39.6167 97.5688 37.8841 96.1468C36.1692 94.7392 35.2047 92.7441 35.2047 90.3187H34.2047H33.2047C33.2047 93.3254 34.4241 95.8943 36.6152 97.6927C38.7887 99.4767 41.8456 100.447 45.4607 100.447V99.4467ZM87.9586 86.4548L87.9613 87.4547L88.9586 87.4521V86.4548H87.9586ZM67.1266 86.5107L67.1239 85.5107L66.0181 85.5137L66.1319 86.6136L67.1266 86.5107ZM81.7426 89.7588V88.7588H80.997L80.7842 89.4733L81.7426 89.7588ZM88.0706 89.7588L89.0522 89.9496L89.2837 88.7588H88.0706V89.7588ZM67.2946 82.1427L66.3075 81.9827L66.1193 83.1427H67.2946V82.1427ZM81.1826 82.1427V83.1427H82.1826V82.1427H81.1826ZM74.6306 99.4467V98.4467C70.7664 98.4467 67.5332 97.0455 65.2643 94.6865C62.9927 92.3248 61.6306 88.9429 61.6306 84.8867H60.6306H59.6306C59.6306 89.3986 61.1525 93.2967 63.8228 96.073C66.4959 98.852 70.2627 100.447 74.6306 100.447V99.4467ZM60.6306 84.8867H61.6306C61.6306 80.7657 62.9704 77.3539 65.202 74.9808C67.4294 72.6123 70.6034 71.2148 74.4066 71.2148V70.2148V69.2148C70.0898 69.2148 66.3757 70.8132 63.7451 73.6107C61.1187 76.4036 59.6306 80.3278 59.6306 84.8867H60.6306ZM74.4066 70.2148V71.2148C78.3201 71.2148 81.4315 72.5179 83.5672 74.7552C85.7077 76.9976 86.9586 80.2741 86.9586 84.3828H87.9586H88.9586C88.9586 79.8674 87.5775 76.0599 85.0139 73.3743C82.4456 70.6836 78.7811 69.2148 74.4066 69.2148V70.2148ZM87.9586 84.3828H86.9586V86.4548H87.9586H88.9586V84.3828H87.9586ZM87.9586 86.4548L87.9559 85.4548L67.1239 85.5107L67.1266 86.5107L67.1292 87.5107L87.9613 87.4547L87.9586 86.4548ZM67.1266 86.5107L66.1319 86.6136C66.3991 89.1967 67.2306 91.2853 68.7295 92.7266C70.238 94.1771 72.2919 94.8467 74.7426 94.8467V93.8467V92.8467C72.6572 92.8467 71.1551 92.2844 70.1157 91.2849C69.0666 90.2762 68.358 88.6968 68.1213 86.4079L67.1266 86.5107ZM74.7426 93.8467V94.8467C78.7394 94.8467 81.7421 93.2632 82.701 90.0442L81.7426 89.7588L80.7842 89.4733C80.175 91.5183 78.2497 92.8467 74.7426 92.8467V93.8467ZM81.7426 89.7588V90.7588H88.0706V89.7588V88.7588H81.7426V89.7588ZM88.0706 89.7588L87.089 89.5679C86.5476 92.352 85.1294 94.5482 83.0336 96.0597C80.9273 97.5787 78.0779 98.4467 74.6306 98.4467V99.4467V100.447C78.4072 100.447 81.6898 99.4948 84.2035 97.6818C86.7277 95.8613 88.4175 93.2135 89.0522 89.9496L88.0706 89.7588ZM74.4626 75.8148V74.8148C72.2629 74.8148 70.3837 75.414 68.9564 76.6754C67.534 77.9324 66.6694 79.7504 66.3075 81.9827L67.2946 82.1427L68.2817 82.3028C68.5917 80.3911 69.2952 79.0451 70.2808 78.1741C71.2614 77.3075 72.6303 76.8148 74.4626 76.8148V75.8148ZM67.2946 82.1427V83.1427H81.1826V82.1427V81.1427H67.2946V82.1427ZM81.1826 82.1427H82.1826C82.1826 79.9996 81.4359 78.1424 80.0428 76.8243C78.6548 75.5112 76.7124 74.8148 74.4626 74.8148V75.8148V76.8148C76.3008 76.8148 77.7183 77.3783 78.6683 78.2772C79.6132 79.1711 80.1826 80.4779 80.1826 82.1427H81.1826ZM110.786 70.9427H111.786V70.162L111.029 69.9726L110.786 70.9427ZM110.786 77.2708V78.2708H111.786V77.2708H110.786ZM100.258 98.7188V99.7188H101.258V98.7188H100.258ZM93.4264 98.7188H92.4264V99.7188H93.4264V98.7188ZM93.4264 71.1107V70.1107H92.4264V71.1107H93.4264ZM99.8664 71.1107L100.862 71.014L100.774 70.1107H99.8664V71.1107ZM100.258 75.1427L99.2631 75.2395L101.178 75.5367L100.258 75.1427ZM110.786 70.9427H109.786V77.2708H110.786H111.786V70.9427H110.786ZM110.786 77.2708V76.2708H108.266V77.2708V78.2708H110.786V77.2708ZM108.266 77.2708V76.2708C105.633 76.2708 103.35 76.9755 101.722 78.5372C100.087 80.1059 99.2584 82.4004 99.2584 85.2787H100.258H101.258C101.258 82.7811 101.97 81.0716 103.107 79.9803C104.251 78.882 105.972 78.2708 108.266 78.2708V77.2708ZM100.258 85.2787H99.2584V98.7188H100.258H101.258V85.2787H100.258ZM100.258 98.7188V97.7188H93.4264V98.7188V99.7188H100.258V98.7188ZM93.4264 98.7188H94.4264V71.1107H93.4264H92.4264V98.7188H93.4264ZM93.4264 71.1107V72.1107H99.8664V71.1107V70.1107H93.4264V71.1107ZM99.8664 71.1107L98.8711 71.2075L99.2631 75.2395L100.258 75.1427L101.254 75.046L100.862 71.014L99.8664 71.1107ZM100.258 75.1427L101.178 75.5367C102.185 73.1849 104.439 71.5508 107.762 71.5508V70.5508V69.5508C103.694 69.5508 100.683 71.6126 99.3393 74.7488L100.258 75.1427ZM107.762 70.5508V71.5508C108.628 71.5508 109.498 71.6515 110.544 71.9129L110.786 70.9427L111.029 69.9726C109.834 69.674 108.801 69.5508 107.762 69.5508V70.5508ZM113.283 90.3187V89.3187H112.283V90.3187H113.283ZM119.779 90.3187L120.779 90.2955L120.756 89.3187H119.779V90.3187ZM126.499 87.9668L126.269 88.9401L126.277 88.9419L126.499 87.9668ZM121.515 86.7907L121.744 85.8174L121.734 85.8151L121.515 86.7907ZM135.571 79.1748V80.1748H136.581L136.571 79.1643L135.571 79.1748ZM129.075 79.1748L128.075 79.1986L128.098 80.1748H129.075V79.1748ZM124.147 81.7507L123.915 82.7236L123.917 82.724L124.147 81.7507ZM129.131 82.9268L128.901 83.9L128.908 83.9015L129.131 82.9268ZM113.283 90.3187V91.3187H119.779V90.3187V89.3187H113.283V90.3187ZM119.779 90.3187L118.779 90.342C118.813 91.8091 119.389 93.0791 120.49 93.962C121.568 94.8256 123.046 95.2387 124.763 95.2387V94.2387V93.2387C123.344 93.2387 122.358 92.8959 121.741 92.4015C121.149 91.9264 120.8 91.2364 120.779 90.2955L119.779 90.3187ZM124.763 94.2387V95.2387C126.473 95.2387 127.931 94.8966 128.991 94.1662C130.094 93.406 130.691 92.2724 130.691 90.9347H129.691H128.691C128.691 91.6131 128.419 92.1315 127.856 92.5193C127.25 92.9369 126.244 93.2387 124.763 93.2387V94.2387ZM129.691 90.9347H130.691C130.691 90.0443 130.451 89.1636 129.731 88.4337C129.048 87.7411 128.035 87.2905 126.72 86.9916L126.499 87.9668L126.277 88.9419C127.426 89.203 128.01 89.5364 128.307 89.8378C128.567 90.1019 128.691 90.4252 128.691 90.9347H129.691ZM126.499 87.9668L126.728 86.9935L121.744 85.8175L121.515 86.7907L121.285 87.764L126.269 88.94L126.499 87.9668ZM121.515 86.7907L121.734 85.8151C119.337 85.2764 117.706 84.471 116.673 83.3906C115.665 82.3372 115.123 80.913 115.123 78.8948H114.123H113.123C113.123 81.3005 113.784 83.2643 115.227 84.7729C116.644 86.2544 118.709 87.1851 121.296 87.7664L121.515 86.7907ZM114.123 78.8948H115.123C115.123 76.4931 116.123 74.6153 117.825 73.3115C119.553 71.9878 122.064 71.2148 125.099 71.2148V70.2148V69.2148C121.749 69.2148 118.773 70.0657 116.609 71.724C114.418 73.4022 113.123 75.8644 113.123 78.8948H114.123ZM125.099 70.2148V71.2148C128.019 71.2148 130.377 72.0556 131.995 73.4388C133.6 74.8112 134.546 76.7733 134.571 79.1852L135.571 79.1748L136.571 79.1643C136.54 76.2002 135.357 73.6823 133.295 71.9187C131.245 70.1659 128.395 69.2148 125.099 69.2148V70.2148ZM135.571 79.1748V78.1748H129.075V79.1748V80.1748H135.571V79.1748ZM129.075 79.1748L130.075 79.1509C130.041 77.7513 129.55 76.5113 128.591 75.6259C127.638 74.7458 126.325 74.3108 124.819 74.3108V75.3108V76.3108C125.945 76.3108 126.732 76.6317 127.235 77.0956C127.731 77.5542 128.052 78.2462 128.075 79.1986L129.075 79.1748ZM124.819 75.3108V74.3108C123.338 74.3108 122.029 74.6483 121.068 75.3968C120.074 76.1709 119.563 77.3002 119.563 78.6147H120.563H121.563C121.563 77.8573 121.835 77.3346 122.297 76.9747C122.792 76.5892 123.612 76.3108 124.819 76.3108V75.3108ZM120.563 78.6147H119.563C119.563 79.7037 120.008 80.6199 120.821 81.3188C121.594 81.9846 122.666 82.426 123.915 82.7236L124.147 81.7507L124.378 80.7779C123.276 80.5155 122.555 80.1729 122.125 79.8027C121.733 79.4656 121.563 79.0938 121.563 78.6147H120.563ZM124.147 81.7507L123.917 82.724L128.901 83.9L129.131 82.9268L129.36 81.9535L124.376 80.7775L124.147 81.7507ZM129.131 82.9268L128.908 83.9015C131.146 84.4139 132.681 85.152 133.658 86.1524C134.605 87.1222 135.131 88.4453 135.131 90.3747H136.131H137.131C137.131 88.0482 136.48 86.1793 135.089 84.7551C133.728 83.3615 131.764 82.5036 129.354 81.952L129.131 82.9268ZM136.131 90.3747H135.131C135.131 92.8595 134.089 94.8359 132.288 96.2173C130.462 97.6178 127.797 98.4467 124.539 98.4467V99.4467V100.447C128.113 100.447 131.243 99.5396 133.505 97.8042C135.793 96.0496 137.131 93.49 137.131 90.3747H136.131ZM124.539 99.4467V98.4467C121.266 98.4467 118.695 97.5688 116.962 96.1468C115.247 94.7392 114.283 92.7441 114.283 90.3187H113.283H112.283C112.283 93.3254 113.502 95.8943 115.693 97.6927C117.867 99.4767 120.924 100.447 124.539 100.447V99.4467ZM162.53 98.7188L161.579 99.0269L161.803 99.7188H162.53V98.7188ZM153.57 71.0547V70.0547H152.195L152.619 71.3629L153.57 71.0547ZM160.682 71.0547L161.639 70.7616L161.422 70.0547H160.682V71.0547ZM164.322 82.9268L165.285 82.6553L165.282 82.6444L165.279 82.6336L164.322 82.9268ZM166.002 90.0947L165.021 90.2868L166.985 90.279L166.002 90.0947ZM167.906 82.9268L168.857 83.2372L168.859 83.2322L167.906 82.9268ZM171.714 71.0547V70.0547H170.985L170.762 70.7493L171.714 71.0547ZM178.658 71.0547L179.613 70.7575L179.394 70.0547H178.658V71.0547ZM182.354 82.9268L183.312 82.6394L183.309 82.6295L182.354 82.9268ZM184.146 90.0387L183.163 90.2176L185.124 90.2501L184.146 90.0387ZM185.994 82.9268L185.04 82.6295L185.037 82.6387L185.034 82.6479L185.994 82.9268ZM189.69 71.0547V70.0547H188.954L188.736 70.7575L189.69 71.0547ZM196.914 71.0547L197.859 71.3819L198.319 70.0547H196.914V71.0547ZM187.338 98.7188V99.7188H188.051L188.283 99.0459L187.338 98.7188ZM180.954 98.7188L180.001 99.0216L180.223 99.7188H180.954V98.7188ZM177.146 86.7347L176.191 87.0288L176.193 87.0376L177.146 86.7347ZM175.186 79.0628L176.174 78.9048L174.209 78.8503L175.186 79.0628ZM173.002 86.8467L173.955 87.1522L173.958 87.1417L173.002 86.8467ZM169.194 98.7188V99.7188H169.924L170.147 99.0242L169.194 98.7188ZM162.53 98.7188L163.482 98.4106L154.522 70.7466L153.57 71.0547L152.619 71.3629L161.579 99.0269L162.53 98.7188ZM153.57 71.0547V72.0547H160.682V71.0547V70.0547H153.57V71.0547ZM160.682 71.0547L159.726 71.3479L163.366 83.2199L164.322 82.9268L165.279 82.6336L161.639 70.7616L160.682 71.0547ZM164.322 82.9268L163.36 83.1982C163.967 85.3508 164.521 87.7316 165.021 90.2868L166.002 90.0947L166.984 89.9027C166.476 87.3059 165.91 84.8707 165.285 82.6553L164.322 82.9268ZM166.002 90.0947L166.985 90.279C167.478 87.6498 167.968 85.959 168.857 83.2372L167.906 82.9268L166.956 82.6163C166.053 85.3825 165.535 87.1637 165.02 89.9105L166.002 90.0947ZM167.906 82.9268L168.859 83.2322L172.667 71.3602L171.714 71.0547L170.762 70.7493L166.954 82.6213L167.906 82.9268ZM171.714 71.0547V72.0547H178.658V71.0547V70.0547H171.714V71.0547ZM178.658 71.0547L177.704 71.352L181.4 83.224L182.354 82.9268L183.309 82.6295L179.613 70.7575L178.658 71.0547ZM182.354 82.9268L181.397 83.2141C181.73 84.3243 182.837 88.4256 183.163 90.2176L184.146 90.0387L185.13 89.8599C184.784 87.9559 183.651 83.7691 183.312 82.6394L182.354 82.9268ZM184.146 90.0387L185.124 90.2501C185.565 88.2118 186.453 84.9337 186.955 83.2056L185.994 82.9268L185.034 82.6479C184.528 84.3918 183.624 87.7217 183.169 89.8274L184.146 90.0387ZM185.994 82.9268L186.949 83.224L190.645 71.352L189.69 71.0547L188.736 70.7575L185.04 82.6295L185.994 82.9268ZM189.69 71.0547V72.0547H196.914V71.0547V70.0547H189.69V71.0547ZM196.914 71.0547L195.969 70.7276L186.393 98.3916L187.338 98.7188L188.283 99.0459L197.859 71.3819L196.914 71.0547ZM187.338 98.7188V97.7188H180.954V98.7188V99.7188H187.338V98.7188ZM180.954 98.7188L181.907 98.4159L178.099 86.4319L177.146 86.7347L176.193 87.0376L180.001 99.0216L180.954 98.7188ZM177.146 86.7347L178.102 86.4407C176.989 82.8218 176.387 80.2396 176.174 78.9048L175.186 79.0628L174.199 79.2207C174.433 80.6859 175.064 83.3677 176.191 87.0288L177.146 86.7347ZM175.186 79.0628L174.209 78.8503C173.938 80.0967 173.444 82.0248 172.047 86.5518L173.002 86.8467L173.958 87.1417C175.361 82.5967 175.875 80.6048 176.164 79.2752L175.186 79.0628ZM173.002 86.8467L172.05 86.5413L168.242 98.4133L169.194 98.7188L170.147 99.0242L173.955 87.1522L173.002 86.8467ZM169.194 98.7188V97.7188H162.53V98.7188V99.7188H169.194V98.7188ZM198.06 84.8307H199.06C199.06 80.7677 200.52 77.3924 202.938 75.0324C205.358 72.6701 208.795 71.2708 212.844 71.2708V70.2708V69.2708C208.325 69.2708 204.37 70.8394 201.541 73.6011C198.709 76.3651 197.06 80.2698 197.06 84.8307H198.06ZM212.844 70.2708V71.2708C216.893 71.2708 220.33 72.6701 222.751 75.0324C225.169 77.3924 226.628 80.7677 226.628 84.8307H227.628H228.628C228.628 80.2698 226.98 76.3651 224.148 73.6011C221.318 70.8394 217.363 69.2708 212.844 69.2708V70.2708ZM227.628 84.8307H226.628C226.628 88.8938 225.169 92.2691 222.751 94.6291C220.33 96.9914 216.893 98.3907 212.844 98.3907V99.3907V100.391C217.363 100.391 221.318 98.8221 224.148 96.0604C226.98 93.2964 228.628 89.3917 228.628 84.8307H227.628ZM212.844 99.3907V98.3907C208.795 98.3907 205.358 96.9914 202.938 94.6291C200.52 92.2691 199.06 88.8938 199.06 84.8307H198.06H197.06C197.06 89.3917 198.709 93.2964 201.541 96.0604C204.37 98.8221 208.325 100.391 212.844 100.391V99.3907ZM204.892 84.8307H203.892C203.892 87.5672 204.777 89.939 206.377 91.635C207.981 93.3354 210.24 94.2868 212.844 94.2868V93.2868V92.2868C210.745 92.2868 209.027 91.5301 207.832 90.2625C206.632 88.9905 205.892 87.1343 205.892 84.8307H204.892ZM212.844 93.2868V94.2868C215.449 94.2868 217.707 93.3354 219.312 91.635C220.912 89.939 221.796 87.5672 221.796 84.8307H220.796H219.796C219.796 87.1343 219.057 88.9905 217.857 90.2625C216.661 91.5301 214.944 92.2868 212.844 92.2868V93.2868ZM220.796 84.8307H221.796C221.796 82.0943 220.912 79.7225 219.312 78.0265C217.707 76.3261 215.449 75.3747 212.844 75.3747V76.3747V77.3747C214.944 77.3747 216.661 78.1314 217.857 79.399C219.057 80.671 219.796 82.5272 219.796 84.8307H220.796ZM212.844 76.3747V75.3747C210.24 75.3747 207.981 76.3261 206.377 78.0265C204.777 79.7225 203.892 82.0943 203.892 84.8307H204.892H205.892C205.892 82.5272 206.632 80.671 207.832 79.399C209.027 78.1314 210.745 77.3747 212.844 77.3747V76.3747ZM250.404 70.9427H251.404V70.162L250.646 69.9726L250.404 70.9427ZM250.404 77.2708V78.2708H251.404V77.2708H250.404ZM239.876 98.7188V99.7188H240.876V98.7188H239.876ZM233.044 98.7188H232.044V99.7188H233.044V98.7188ZM233.044 71.1107V70.1107H232.044V71.1107H233.044ZM239.484 71.1107L240.479 71.014L240.391 70.1107H239.484V71.1107ZM239.876 75.1427L238.88 75.2395L240.795 75.5367L239.876 75.1427ZM250.404 70.9427H249.404V77.2708H250.404H251.404V70.9427H250.404ZM250.404 77.2708V76.2708H247.884V77.2708V78.2708H250.404V77.2708ZM247.884 77.2708V76.2708C245.25 76.2708 242.967 76.9755 241.339 78.5372C239.705 80.1059 238.876 82.4004 238.876 85.2787H239.876H240.876C240.876 82.7811 241.587 81.0716 242.724 79.9803C243.869 78.882 245.589 78.2708 247.884 78.2708V77.2708ZM239.876 85.2787H238.876V98.7188H239.876H240.876V85.2787H239.876ZM239.876 98.7188V97.7188H233.044V98.7188V99.7188H239.876V98.7188ZM233.044 98.7188H234.044V71.1107H233.044H232.044V98.7188H233.044ZM233.044 71.1107V72.1107H239.484V71.1107V70.1107H233.044V71.1107ZM239.484 71.1107L238.488 71.2075L238.88 75.2395L239.876 75.1427L240.871 75.046L240.479 71.014L239.484 71.1107ZM239.876 75.1427L240.795 75.5367C241.803 73.1849 244.056 71.5508 247.38 71.5508V70.5508V69.5508C243.311 69.5508 240.301 71.6126 238.956 74.7488L239.876 75.1427ZM247.38 70.5508V71.5508C248.245 71.5508 249.116 71.6515 250.161 71.9129L250.404 70.9427L250.646 69.9726C249.452 69.674 248.418 69.5508 247.38 69.5508V70.5508ZM261.916 98.7188V99.7188H262.916V98.7188H261.916ZM255.14 98.7188H254.14V99.7188H255.14V98.7188ZM255.14 57.0547V56.0547H254.14V57.0547H255.14ZM261.916 57.0547H262.916V56.0547H261.916V57.0547ZM261.916 98.7188V97.7188H255.14V98.7188V99.7188H261.916V98.7188ZM255.14 98.7188H256.14V57.0547H255.14H254.14V98.7188H255.14ZM255.14 57.0547V58.0547H261.916V57.0547V56.0547H255.14V57.0547ZM261.916 57.0547H260.916V98.7188H261.916H262.916V57.0547H261.916ZM289.859 74.5827L289.014 75.1174L290.859 78.0338V74.5827H289.859ZM289.859 57.0547V56.0547H288.859V57.0547H289.859ZM296.635 57.0547H297.635V56.0547H296.635V57.0547ZM296.635 98.7188V99.7188H297.635V98.7188H296.635ZM290.363 98.7188L289.368 98.8221L289.461 99.7188H290.363V98.7188ZM289.915 94.4067L290.909 94.3034L290.568 91.0183L289.03 93.941L289.915 94.4067ZM280.451 99.4467V98.4467C276.707 98.4467 273.742 97.0811 271.701 94.7733C269.648 92.4524 268.459 89.0936 268.459 84.9987H267.459H266.459C266.459 89.4719 267.761 93.3371 270.203 96.0982C272.656 98.8724 276.186 100.447 280.451 100.447V99.4467ZM267.459 84.9987H268.459C268.459 80.8763 269.662 77.4321 271.773 75.0332C273.87 72.6486 276.934 71.2148 280.843 71.2148V70.2148V69.2148C276.407 69.2148 272.779 70.8609 270.271 73.7123C267.775 76.5494 266.459 80.4972 266.459 84.9987H267.459ZM280.843 70.2148V71.2148C284.45 71.2148 287.503 72.7294 289.014 75.1174L289.859 74.5827L290.704 74.0481C288.743 70.9481 284.963 69.2148 280.843 69.2148V70.2148ZM289.859 74.5827H290.859V57.0547H289.859H288.859V74.5827H289.859ZM289.859 57.0547V58.0547H296.635V57.0547V56.0547H289.859V57.0547ZM296.635 57.0547H295.635V98.7188H296.635H297.635V57.0547H296.635ZM296.635 98.7188V97.7188H290.363V98.7188V99.7188H296.635V98.7188ZM290.363 98.7188L291.357 98.6154L290.909 94.3034L289.915 94.4067L288.92 94.5101L289.368 98.8221L290.363 98.7188ZM289.915 94.4067L289.03 93.941C287.562 96.7291 284.373 98.4467 280.451 98.4467V99.4467V100.447C284.928 100.447 288.907 98.4684 290.8 94.8725L289.915 94.4067ZM281.963 93.1748V94.1748C284.594 94.1748 286.83 93.2237 288.402 91.5225C289.967 89.8291 290.803 87.4717 290.803 84.7747H289.803H288.803C288.803 87.0618 288.098 88.9044 286.933 90.165C285.776 91.4178 284.091 92.1748 281.963 92.1748V93.1748ZM289.803 84.7747H290.803C290.803 82.0783 289.967 79.7089 288.405 78.0025C286.835 76.2874 284.599 75.3187 281.963 75.3187V76.3187V77.3187C284.086 77.3187 285.77 78.0861 286.93 79.353C288.098 80.6286 288.803 82.4872 288.803 84.7747H289.803ZM281.963 76.3187V75.3187C279.319 75.3187 277.12 76.3073 275.592 78.0368C274.077 79.7528 273.291 82.1185 273.291 84.7747H274.291H275.291C275.291 82.503 275.961 80.6407 277.091 79.3607C278.21 78.0942 279.847 77.3187 281.963 77.3187V76.3187ZM274.291 84.7747H273.291C273.291 87.4314 274.077 89.7851 275.595 91.4882C277.125 93.2039 279.324 94.1748 281.963 94.1748V93.1748V92.1748C279.841 92.1748 278.205 91.4096 277.088 90.1573C275.96 88.8924 275.291 87.0461 275.291 84.7747H274.291ZM10.3351 154.719L9.38378 155.027L9.60787 155.719H10.3351V154.719ZM1.37512 127.055V126.055H9.48906e-05L0.42378 127.363L1.37512 127.055ZM8.48713 127.055L9.4432 126.762L9.22647 126.055H8.48713V127.055ZM12.1271 138.927L13.0896 138.655L13.0865 138.644L13.0832 138.634L12.1271 138.927ZM13.8071 146.095L12.8257 146.287L14.79 146.279L13.8071 146.095ZM15.7111 138.927L16.6617 139.237L16.6633 139.232L15.7111 138.927ZM19.5191 127.055V126.055H18.7897L18.5669 126.749L19.5191 127.055ZM26.4631 127.055L27.4179 126.757L27.1991 126.055H26.4631V127.055ZM30.1591 138.927L31.117 138.639L31.1139 138.63L30.1591 138.927ZM31.9511 146.039L30.9673 146.218L32.9285 146.25L31.9511 146.039ZM33.7991 138.927L32.8443 138.63L32.8415 138.639L32.8388 138.648L33.7991 138.927ZM37.4951 127.055V126.055H36.7591L36.5403 126.757L37.4951 127.055ZM44.7191 127.055L45.6641 127.382L46.1235 126.055H44.7191V127.055ZM35.1431 154.719V155.719H35.8552L36.0881 155.046L35.1431 154.719ZM28.7591 154.719L27.8061 155.022L28.0276 155.719H28.7591V154.719ZM24.9511 142.735L23.9953 143.029L23.9981 143.038L24.9511 142.735ZM22.9911 135.063L23.9786 134.905L22.014 134.85L22.9911 135.063ZM20.8071 142.847L21.7594 143.152L21.7626 143.142L20.8071 142.847ZM16.9991 154.719V155.719H17.7286L17.9513 155.024L16.9991 154.719ZM10.3351 154.719L11.2865 154.411L2.32647 126.747L1.37512 127.055L0.42378 127.363L9.38378 155.027L10.3351 154.719ZM1.37512 127.055V128.055H8.48713V127.055V126.055H1.37512V127.055ZM8.48713 127.055L7.53105 127.348L11.1711 139.22L12.1271 138.927L13.0832 138.634L9.4432 126.762L8.48713 127.055ZM12.1271 138.927L11.1647 139.198C11.7718 141.351 12.3258 143.732 12.8257 146.287L13.8071 146.095L14.7885 145.903C14.2804 143.306 13.7144 140.871 13.0896 138.655L12.1271 138.927ZM13.8071 146.095L14.79 146.279C15.283 143.65 15.773 141.959 16.6617 139.237L15.7111 138.927L14.7605 138.616C13.8573 141.383 13.3393 143.164 12.8243 145.91L13.8071 146.095ZM15.7111 138.927L16.6633 139.232L20.4713 127.36L19.5191 127.055L18.5669 126.749L14.7589 138.621L15.7111 138.927ZM19.5191 127.055V128.055H26.4631V127.055V126.055H19.5191V127.055ZM26.4631 127.055L25.5083 127.352L29.2043 139.224L30.1591 138.927L31.1139 138.63L27.4179 126.757L26.4631 127.055ZM30.1591 138.927L29.2013 139.214C29.5344 140.324 30.6414 144.426 30.9673 146.218L31.9511 146.039L32.935 145.86C32.5888 143.956 31.4559 139.769 31.117 138.639L30.1591 138.927ZM31.9511 146.039L32.9285 146.25C33.3693 144.212 34.2578 140.934 34.7595 139.206L33.7991 138.927L32.8388 138.648C32.3325 140.392 31.429 143.722 30.9737 145.827L31.9511 146.039ZM33.7991 138.927L34.7539 139.224L38.4499 127.352L37.4951 127.055L36.5403 126.757L32.8443 138.63L33.7991 138.927ZM37.4951 127.055V128.055H44.7191V127.055V126.055H37.4951V127.055ZM44.7191 127.055L43.7741 126.728L34.1981 154.392L35.1431 154.719L36.0881 155.046L45.6641 127.382L44.7191 127.055ZM35.1431 154.719V153.719H28.7591V154.719V155.719H35.1431V154.719ZM28.7591 154.719L29.7122 154.416L25.9042 142.432L24.9511 142.735L23.9981 143.038L27.8061 155.022L28.7591 154.719ZM24.9511 142.735L25.9069 142.441C24.7934 138.822 24.1921 136.24 23.9786 134.905L22.9911 135.063L22.0037 135.221C22.2381 136.686 22.8688 139.368 23.9953 143.029L24.9511 142.735ZM22.9911 135.063L22.014 134.85C21.743 136.097 21.2488 138.025 19.8516 142.552L20.8071 142.847L21.7626 143.142C23.1654 138.597 23.6792 136.605 23.9683 135.275L22.9911 135.063ZM20.8071 142.847L19.8549 142.541L16.0469 154.413L16.9991 154.719L17.9513 155.024L21.7593 143.152L20.8071 142.847ZM16.9991 154.719V153.719H10.3351V154.719V155.719H16.9991V154.719ZM48.8561 154.719H47.8561V155.719H48.8561V154.719ZM48.8561 127.055V126.055H47.8561V127.055H48.8561ZM55.6881 127.055H56.6881V126.055H55.6881V127.055ZM55.6881 154.719V155.719H56.6881V154.719H55.6881ZM52.2721 121.511V120.511C50.4636 120.511 49.0721 119.102 49.0721 117.367H48.0721H47.0721C47.0721 120.224 49.3766 122.511 52.2721 122.511V121.511ZM48.0721 117.367H49.0721C49.0721 115.649 50.4457 114.279 52.2721 114.279V113.279V112.279C49.3946 112.279 47.0721 114.492 47.0721 117.367H48.0721ZM52.2721 113.279V114.279C53.9688 114.279 55.3601 115.632 55.3601 117.367H56.3601H57.3601C57.3601 114.51 55.0555 112.279 52.2721 112.279V113.279ZM56.3601 117.367H55.3601C55.3601 119.119 53.951 120.511 52.2721 120.511V121.511V122.511C55.0732 122.511 57.3601 120.206 57.3601 117.367H56.3601ZM48.8561 154.719H49.8561V127.055H48.8561H47.8561V154.719H48.8561ZM48.8561 127.055V128.055H55.6881V127.055V126.055H48.8561V127.055ZM55.6881 127.055H54.6881V154.719H55.6881H56.6881V127.055H55.6881ZM55.6881 154.719V153.719H48.8561V154.719V155.719H55.6881V154.719ZM83.5228 130.583L82.6777 131.117L84.5228 134.034V130.583H83.5228ZM83.5228 113.055V112.055H82.5228V113.055H83.5228ZM90.2988 113.055H91.2988V112.055H90.2988V113.055ZM90.2988 154.719V155.719H91.2988V154.719H90.2988ZM84.0267 154.719L83.0321 154.822L83.1253 155.719H84.0267V154.719ZM83.5788 150.407L84.5734 150.303L84.2321 147.018L82.6938 149.941L83.5788 150.407ZM74.1148 155.447V154.447C70.3715 154.447 67.4056 153.081 65.3649 150.773C63.3125 148.452 62.1227 145.094 62.1227 140.999H61.1227H60.1227C60.1227 145.472 61.425 149.337 63.8666 152.098C66.3199 154.872 69.85 156.447 74.1148 156.447V155.447ZM61.1227 140.999H62.1227C62.1227 136.876 63.3264 133.432 65.4366 131.033C67.5343 128.649 70.598 127.215 74.5068 127.215V126.215V125.215C70.0715 125.215 66.4432 126.861 63.9349 129.712C61.4391 132.549 60.1227 136.497 60.1227 140.999H61.1227ZM74.5068 126.215V127.215C78.1145 127.215 81.1669 128.729 82.6777 131.117L83.5228 130.583L84.3678 130.048C82.4066 126.948 78.627 125.215 74.5068 125.215V126.215ZM83.5228 130.583H84.5228V113.055H83.5228H82.5228V130.583H83.5228ZM83.5228 113.055V114.055H90.2988V113.055V112.055H83.5228V113.055ZM90.2988 113.055H89.2988V154.719H90.2988H91.2988V113.055H90.2988ZM90.2988 154.719V153.719H84.0267V154.719V155.719H90.2988V154.719ZM84.0267 154.719L85.0214 154.615L84.5734 150.303L83.5788 150.407L82.5841 150.51L83.0321 154.822L84.0267 154.719ZM83.5788 150.407L82.6938 149.941C81.2264 152.729 78.0371 154.447 74.1148 154.447V155.447V156.447C78.5924 156.447 82.5711 154.468 84.4637 150.872L83.5788 150.407ZM75.6267 149.175V150.175C78.258 150.175 80.4939 149.224 82.0662 147.522C83.6311 145.829 84.4668 143.472 84.4668 140.775H83.4668H82.4668C82.4668 143.062 81.7624 144.904 80.5974 146.165C79.4396 147.418 77.7555 148.175 75.6267 148.175V149.175ZM83.4668 140.775H84.4668C84.4668 138.078 83.6315 135.709 82.0693 134.003C80.4992 132.287 78.2632 131.319 75.6267 131.319V132.319V133.319C77.7504 133.319 79.4343 134.086 80.5942 135.353C81.762 136.629 82.4668 138.487 82.4668 140.775H83.4668ZM75.6267 132.319V131.319C72.9828 131.319 70.7836 132.307 69.2562 134.037C67.7407 135.753 66.9548 138.118 66.9548 140.775H67.9548H68.9548C68.9548 138.503 69.6248 136.641 70.7553 135.361C71.8739 134.094 73.5107 133.319 75.6267 133.319V132.319ZM67.9548 140.775H66.9548C66.9548 143.431 67.741 145.785 69.2593 147.488C70.7889 149.204 72.988 150.175 75.6267 150.175V149.175V148.175C73.5055 148.175 71.8686 147.41 70.7522 146.157C69.6245 144.892 68.9548 143.046 68.9548 140.775H67.9548ZM123.123 142.455L123.125 143.455L124.123 143.452V142.455H123.123ZM102.291 142.511L102.288 141.511L101.182 141.514L101.296 142.614L102.291 142.511ZM116.907 145.759V144.759H116.161L115.948 145.473L116.907 145.759ZM123.235 145.759L124.216 145.95L124.448 144.759H123.235V145.759ZM102.459 138.143L101.472 137.983L101.283 139.143H102.459V138.143ZM116.347 138.143V139.143H117.347V138.143H116.347ZM109.795 155.447V154.447C105.93 154.447 102.697 153.045 100.428 150.687C98.1567 148.325 96.7946 144.943 96.7946 140.887H95.7946H94.7946C94.7946 145.399 96.3165 149.297 98.9869 152.073C101.66 154.852 105.427 156.447 109.795 156.447V155.447ZM95.7946 140.887H96.7946C96.7946 136.766 98.1345 133.354 100.366 130.981C102.593 128.612 105.767 127.215 109.571 127.215V126.215V125.215C105.254 125.215 101.54 126.813 98.9091 129.611C96.2828 132.404 94.7946 136.328 94.7946 140.887H95.7946ZM109.571 126.215V127.215C113.484 127.215 116.596 128.518 118.731 130.755C120.872 132.998 122.123 136.274 122.123 140.383H123.123H124.123C124.123 135.867 122.742 132.06 120.178 129.374C117.61 126.684 113.945 125.215 109.571 125.215V126.215ZM123.123 140.383H122.123V142.455H123.123H124.123V140.383H123.123ZM123.123 142.455L123.12 141.455L102.288 141.511L102.291 142.511L102.293 143.511L123.125 143.455L123.123 142.455ZM102.291 142.511L101.296 142.614C101.563 145.197 102.395 147.285 103.894 148.727C105.402 150.177 107.456 150.847 109.907 150.847V149.847V148.847C107.821 148.847 106.319 148.284 105.28 147.285C104.231 146.276 103.522 144.697 103.285 142.408L102.291 142.511ZM109.907 149.847V150.847C113.904 150.847 116.906 149.263 117.865 146.044L116.907 145.759L115.948 145.473C115.339 147.518 113.414 148.847 109.907 148.847V149.847ZM116.907 145.759V146.759H123.235V145.759V144.759H116.907V145.759ZM123.235 145.759L122.253 145.568C121.712 148.352 120.293 150.548 118.198 152.06C116.091 153.579 113.242 154.447 109.795 154.447V155.447V156.447C113.571 156.447 116.854 155.495 119.368 153.682C121.892 151.861 123.582 149.214 124.216 145.95L123.235 145.759ZM109.627 131.815V130.815C107.427 130.815 105.548 131.414 104.12 132.675C102.698 133.932 101.834 135.75 101.472 137.983L102.459 138.143L103.446 138.303C103.756 136.391 104.459 135.045 105.445 134.174C106.425 133.307 107.794 132.815 109.627 132.815V131.815ZM102.459 138.143V139.143H116.347V138.143V137.143H102.459V138.143ZM116.347 138.143H117.347C117.347 136 116.6 134.142 115.207 132.824C113.819 131.511 111.876 130.815 109.627 130.815V131.815V132.815C111.465 132.815 112.882 133.378 113.832 134.277C114.777 135.171 115.347 136.478 115.347 138.143H116.347Z" fill="black" mask="url(#path-1-outside-1_5599_29064)"/>
</svg>
