<svg width="32" height="32" viewBox="0 0 32 32" fill="none" xmlns="http://www.w3.org/2000/svg">
<rect width="32" height="32" rx="9.6" fill="url(#paint0_linear_5703_6003)"/>
<rect x="4.16016" y="4.16016" width="23.6157" height="23.6157" rx="9.6" fill="url(#paint1_linear_5703_6003)"/>
<g opacity="0.25" filter="url(#filter0_f_5703_6003)">
<rect x="5.11719" y="16" width="21.7991" height="13.6245" rx="6.81223" fill="url(#paint2_linear_5703_6003)"/>
</g>
<g clip-path="url(#clip0_5703_6003)">
<path fill-rule="evenodd" clip-rule="evenodd" d="M14.3967 16.237L9.60156 10.1367H13.3996L16.3596 13.9071L19.5218 10.1537H21.6136L17.371 15.1954L22.4016 21.6034H18.6148L15.4098 17.5259L11.9881 21.5921H9.885L14.3967 16.237ZM19.1668 20.4731L11.9304 11.267H12.8472L20.0745 20.4731H19.1668Z" fill="white"/>
</g>
<defs>
<filter id="filter0_f_5703_6003" x="3.36999" y="14.2528" width="25.2952" height="17.1194" filterUnits="userSpaceOnUse" color-interpolation-filters="sRGB">
<feFlood flood-opacity="0" result="BackgroundImageFix"/>
<feBlend mode="normal" in="SourceGraphic" in2="BackgroundImageFix" result="shape"/>
<feGaussianBlur stdDeviation="0.8736" result="effect1_foregroundBlur_5703_6003"/>
</filter>
<linearGradient id="paint0_linear_5703_6003" x1="2.68996" y1="2.09607" x2="26.4454" y2="32" gradientUnits="userSpaceOnUse">
<stop stop-color="#FBFBFC"/>
<stop offset="1" stop-color="#DBDDE8"/>
</linearGradient>
<linearGradient id="paint1_linear_5703_6003" x1="4.64016" y1="4.16016" x2="24.9602" y2="29.6002" gradientUnits="userSpaceOnUse">
<stop/>
<stop offset="1" stop-color="#323232"/>
</linearGradient>
<linearGradient id="paint2_linear_5703_6003" x1="5.56026" y1="16" x2="15.1674" y2="35.2446" gradientUnits="userSpaceOnUse">
<stop/>
<stop offset="1" stop-color="#323232"/>
</linearGradient>
<clipPath id="clip0_5703_6003">
<rect width="12.8" height="12.8" fill="white" transform="translate(9.60156 9.60156)"/>
</clipPath>
</defs>
</svg>
